<?xml version="1.0" encoding="UTF-8" standalone="no"?>
<svg
   xmlns:dc="http://purl.org/dc/elements/1.1/"
   xmlns:cc="http://creativecommons.org/ns#"
   xmlns:rdf="http://www.w3.org/1999/02/22-rdf-syntax-ns#"
   xmlns:svg="http://www.w3.org/2000/svg"
   xmlns="http://www.w3.org/2000/svg"
   xmlns:sodipodi="http://sodipodi.sourceforge.net/DTD/sodipodi-0.dtd"
   xmlns:inkscape="http://www.inkscape.org/namespaces/inkscape"
   version="1.1"
   viewBox="0 0 760 760"
   id="svg3407"
   inkscape:version="0.91 r13725"
   sodipodi:docname="globe-europe-simple-bw.svg">
  <sodipodi:namedview
     pagecolor="#ffffff"
     bordercolor="#666666"
     borderopacity="1"
     objecttolerance="10"
     gridtolerance="10"
     guidetolerance="10"
     inkscape:pageopacity="0"
     inkscape:pageshadow="2"
     inkscape:window-width="1366"
     inkscape:window-height="714"
     id="namedview3439"
     showgrid="false"
     inkscape:zoom="0.70789474"
     inkscape:cx="380"
     inkscape:cy="380"
     inkscape:window-x="0"
     inkscape:window-y="281"
     inkscape:window-maximized="1"
     inkscape:current-layer="svg3407" />
  <defs
     id="defs3409">
    <radialGradient
       id="sea">
      <stop
         stop-color="#1c546f"
         offset=".5"
         id="stop3412" />
      <stop
         stop-color="#123a51"
         offset="1"
         id="stop3414" />
    </radialGradient>
    <radialGradient
       id="land"
       gradientUnits="userSpaceOnUse"
       cy="-68"
       cx="330"
       r="1036">
      <stop
         stop-color="#eaeaec"
         offset=".13"
         id="stop3417" />
      <stop
         stop-color="#777c41"
         offset=".18"
         id="stop3419" />
      <stop
         stop-color="#9a8d5a"
         offset=".27"
         id="stop3421" />
      <stop
         stop-color="#d1b387"
         offset=".37"
         id="stop3423" />
      <stop
         stop-color="#d3b58d"
         offset=".4"
         id="stop3425" />
      <stop
         stop-color="#d1b287"
         offset=".42"
         id="stop3427" />
      <stop
         stop-color="#b68d64"
         offset=".51"
         id="stop3429" />
      <stop
         stop-color="#968655"
         offset=".59"
         id="stop3431" />
    </radialGradient>
  </defs>
  <path
     d="m760 380a380 380 0 1 1 -760 0 380 380 0 1 1 760 0z"
     fill="url(#sea)"
     id="path3433"
     style="fill:#12AEF8" />
  <path
     d="m10 380c0 69 19 133 52 188l5-90c-42-59-52-84-53-154-3 18-4 37-4 56zm87-238 50-17c33-43 99-94 166-94-26 8-101 44-107 67 28-18 51-21 79-21l61-34-20-29c-92 13-172 60-229 128zm49 239c0 22 22 68 48 68h64l8 13c20 0 20 14 20 32 0 24 30 28 30 66 0 10-12 14-12 30 0 14 37 86 60 86 40 0 84-36 84-52 0-38 34-28 34-54 0-118 48-62 66-164l-41 16c-44-37-70-91-70-111 13 0 53 60 67 96 34-14 69-39 78-75l-18-8-6-12-14 18c-5 0-28-17-35-41 32 21 47 21 103 21 26 0 41 75 66 88 0-41 3-74 18-107 14 0 37 23 53 68-9-164-125-300-280-338l23 19h-25c0 53-16 35-52 75 0-10 0-14 8-19-15-9-29-12-39-12-15 0-56 26-68 52l21-2 8 18c18-11 12-47 39-47 0 8-11 11-11 25l25-1c-23 26-35 32-66 32l-5-16c-9 23-36 35-58 37 0 12-1 19-8 30l-26-5-17 38 33 7c15-24 33-37 58-42l32 35c0 4-6 7-20 7l12 8 18-22c-16-9-22-19-22-31 38 11 29 50 46 53 0-45 31-4 31-58 22 0 60 13 60 29-57 0-73 2-73 20 0 9 49-5 49 42-40 0-58 0-80-12l-7 20c-24-7-49-20-49-48l-58 9-16-10c-40 50-86 44-86 129zm106-217 15-3 7-14c-14 0-21 9-22 17zm9 11 32-5-5-39c-19 10 3 25-27 44zm2-72c13 0 24-2 24-11l-19-4zm218 98c27 0 46 33 46 47l-24-2c0-16-9-33-22-45zm10 431c24 0 48-37 48-77l-38 32z"
     fill="url(#land)"
     id="path3435"
     style="fill:#161616" />
  <metadata
     id="metadata3437">
    <rdf:RDF>
      <cc:Work>
        <dc:format>image/svg+xml</dc:format>
        <dc:type
           rdf:resource="http://purl.org/dc/dcmitype/StillImage" />
        <cc:license
           rdf:resource="http://creativecommons.org/licenses/publicdomain/" />
        <dc:publisher>
          <cc:Agent
             rdf:about="http://openclipart.org/">
            <dc:title>Openclipart</dc:title>
          </cc:Agent>
        </dc:publisher>
        <dc:title></dc:title>
        <dc:date>2013-11-19T07:53:24</dc:date>
        <dc:description>Manually traced outlines of the continents, originally created for a font. Fewer than 200 control points, all rounded to integers. Path data is about 1KB. I recommend using a transformation matrix to scale or transform the outlines.</dc:description>
        <dc:source>https://openclipart.org/detail/188902/simple-globe-facing-europe-and-africa-by-sev-188902</dc:source>
        <dc:creator>
          <cc:Agent>
            <dc:title>Sev</dc:title>
          </cc:Agent>
        </dc:creator>
        <dc:subject>
          <rdf:Bag>
            <rdf:li>africa</rdf:li>
            <rdf:li>earth</rdf:li>
            <rdf:li>europe</rdf:li>
            <rdf:li>globe</rdf:li>
            <rdf:li>planet</rdf:li>
          </rdf:Bag>
        </dc:subject>
      </cc:Work>
      <cc:License
         rdf:about="http://creativecommons.org/licenses/publicdomain/">
        <cc:permits
           rdf:resource="http://creativecommons.org/ns#Reproduction" />
        <cc:permits
           rdf:resource="http://creativecommons.org/ns#Distribution" />
        <cc:permits
           rdf:resource="http://creativecommons.org/ns#DerivativeWorks" />
      </cc:License>
    </rdf:RDF>
  </metadata>
</svg>
